<?xml version="1.0" encoding="utf-8"?>
<!-- Svg Vector Icons : http://www.onlinewebfonts.com/icon -->
<!DOCTYPE svg PUBLIC "-//W3C//DTD SVG 1.1//EN" "http://www.w3.org/Graphics/SVG/1.1/DTD/svg11.dtd">
<svg version="1.1" xmlns="http://www.w3.org/2000/svg" xmlns:xlink="http://www.w3.org/1999/xlink" x="0px" y="0px" viewBox="0 0 1000 1000" enable-background="new 0 0 1000 1000" xml:space="preserve" style="fill: white;">
<metadata> Svg Vector Icons : http://www.onlinewebfonts.com/icon </metadata>
<g><g transform="translate(0.000000,512.000000) scale(0.100000,-0.100000)"><path d="M4560,5001.1c-1455-139.8-2749.2-940-3549.4-2199.7c-120.6-189.5-336.9-633.7-423.1-869.2C499.4,1694.8,398,1300.4,357.8,1040c-44-275.7-59.4-892.1-28.7-1179.3c216.3-2123.2,1820.7-3825.1,3930.4-4171.6c97.6-15.3,308.2-38.3,467.1-49.8c336.9-21.1,400.1-7.7,453.7,107.2c38.3,78.5,38.3,93.8,0,172.3c-42.1,90-126.4,124.4-302.5,124.4c-202.9,0-474.8,32.5-754.3,88.1c-643.3,128.3-1340.1,463.3-1851.3,892.2C729.2-1686.2,275.4,442.7,1163.8,2225.1c637.5,1282.7,1826.4,2140.4,3252.7,2347.2c153.2,23,346.5,34.5,583.9,34.5c237.4,0,430.8-11.5,583.9-34.5C7008.7,4365.5,8199.5,3505.9,8837,2225.1c654.7-1315.2,591.6-2846.8-170.4-4121.9c-59.3-99.6-105.3-201-105.3-229.7c0-116.8,84.2-201,204.9-202.9c105.3,0,155.1,49.8,308.2,319.7c317.8,557.1,515,1158.3,589.7,1797.7c38.3,323.6,26.8,945.8-21.1,1252.1c-287.2,1824.5-1608.2,3308.2-3390.5,3809.8C5726,4997.3,5103.8,5052.8,4560,5001.1z"/><path d="M4862.5,4143.4l-63.2-55.5l-5.7-1874.3c-3.8-1322.9,0-1893.4,15.3-1945.1c23-80.4,111-147.4,193.4-147.4c26.8,0,80.4,21.1,116.8,45.9C5272.2,270.4,7202,1826.9,7219.3,1861.3c78.5,145.5-57.4,331.2-214.4,296.7c-34.5-7.7-400.1-287.2-915.1-698.8C5616.9,1082.1,5226.3,772,5220.5,772s-9.6,733.2-9.6,1627.3c0,1407.1-3.8,1636.9-28.7,1684.7C5117.2,4212.3,4969.8,4239.1,4862.5,4143.4z"/><path d="M3960.8-740.4c-222.1-86.2-381-308.3-384.8-538c-1.9-107.2,1.9-120.6,61.3-172.3c120.6-109.1,287.2-57.4,331.2,103.4c40.2,149.3,61.3,187.6,114.9,214.4c84.2,44,162.7,36.4,231.7-26.8c61.3-53.6,63.2-61.3,61.3-197.2c0-118.7-11.5-162.7-63.2-273.8c-53.6-114.9-107.2-180-384.8-459.5c-178-178-333.1-350.3-344.6-381c-28.7-78.5-7.7-155.1,61.3-212.5l57.4-47.9h488.2h488.2l55.5,55.5c91.9,93.8,65.1,271.8-49.8,323.5c-26.8,13.4-132.1,23-233.6,23H4269l162.7,172.3c248.9,260.4,358,515,358,832.8c0,128.3-9.6,172.3-55.5,268c-65.1,139.8-212.5,279.5-340.8,323.5C4272.9-690.7,4075.7-694.5,3960.8-740.4z"/><path d="M5712.6-727c-47.9-28.7-896-1286.5-913.2-1359.3c-17.2-68.9,36.4-178.1,103.4-212.5c46-24.9,124.4-30.6,384.8-30.6H5613v-124.4c0-145.5,26.8-212.5,97.6-250.8c90-46,185.7-34.5,248.9,28.7l55.5,55.5v289.1c0,275.7-1.9,289.1-45.9,340.8c-46,53.6-49.8,53.6-315.9,63.2l-270,9.6l315.9,474.8c277.6,417.3,315.9,484.3,315.9,551.4C6015.1-742.4,5848.5-652.4,5712.6-727z"/><path d="M7318.8-753.8C7249.9-822.8,5613-4498.6,5613-4590.4c0-82.3,107.2-189.6,189.5-189.6c88.1,0,155.1,38.3,193.4,113c19.1,38.3,398.2,888.3,844.3,1887.7c633.7,1428.2,807.9,1834.1,807.9,1893.4C7646.2-721.3,7439.4-640.9,7318.8-753.8z"/><path d="M7360.9-2762.1c-55.5-28.7-120.6-124.4-120.6-180c0-13.4,13.4-51.7,30.6-86.2c47.9-103.4,118.7-124.4,407.8-124.4h250.8l-348.4-696.9l-348.4-698.8l24.9-78.5c24.9-84.2,109.1-153.2,189.5-153.2c126.4,0,134,11.5,587.8,919c314,629.9,430.8,878.8,430.8,928.5c0,46-17.2,84.2-55.5,128.3l-55.5,63.2l-467.1,5.7C7493-2731.5,7412.6-2735.3,7360.9-2762.1z"/></g></g>
</svg>