<?xml version="1.0" standalone="no"?>
<!DOCTYPE svg PUBLIC "-//W3C//DTD SVG 20010904//EN"
 "http://www.w3.org/TR/2001/REC-SVG-20010904/DTD/svg10.dtd">
<svg version="1.0" xmlns="http://www.w3.org/2000/svg"
  viewBox="0 0 1280.000000 1280.000000"
 preserveAspectRatio="xMidYMid meet">
<metadata>
Created by potrace 1.15, written by Peter Selinger 2001-2017
</metadata>
<g transform="translate(0.000000,1280.000000) scale(0.100000,-0.100000)"
fill="#fff" stroke="none">
<path d="M6035 12789 c-1356 -80 -2706 -617 -3751 -1491 -1342 -1123 -2171
-2787 -2274 -4562 -91 -1577 459 -3217 1493 -4453 1121 -1340 2787 -2170 4561
-2273 1576 -91 3218 459 4453 1493 1340 1122 2170 2786 2273 4561 91 1578
-459 3217 -1494 4454 -1277 1526 -3274 2388 -5261 2271z m911 -33 c524 -50
1017 -155 1489 -317 1372 -469 2506 -1339 3278 -2514 157 -241 255 -413 397
-700 369 -747 574 -1484 652 -2340 17 -183 17 -787 0 -970 -78 -856 -283
-1593 -652 -2340 -241 -488 -501 -890 -833 -1285 -1015 -1212 -2496 -2015
-4097 -2219 -290 -38 -431 -46 -780 -46 -606 0 -1090 65 -1675 225 -1497 408
-2799 1348 -3638 2625 -157 241 -255 413 -397 700 -369 747 -574 1484 -652
2340 -17 183 -17 787 0 970 62 684 205 1282 452 1902 85 212 296 642 410 838
431 734 985 1359 1645 1855 896 673 1955 1104 3070 1249 129 17 219 25 500 45
116 9 682 -4 831 -18z"/>
<path d="M6185 12614 c-759 -33 -1414 -172 -2095 -444 -502 -201 -957 -458
-1405 -794 -760 -570 -1381 -1309 -1809 -2154 -115 -229 -164 -336 -238 -522
-245 -615 -384 -1239 -429 -1924 -15 -225 -6 -764 16 -971 83 -789 274 -1463
605 -2140 905 -1846 2666 -3132 4684 -3420 701 -99 1433 -78 2116 61 1687 344
3164 1381 4059 2847 480 788 769 1633 875 2562 54 470 47 1050 -19 1535 -228
1673 -1138 3190 -2515 4190 -911 662 -1975 1058 -3105 1155 -170 15 -590 26
-740 19z m552 -1414 c663 -54 1223 -207 1793 -491 478 -239 871 -520 1246
-894 418 -417 735 -868 976 -1387 744 -1606 549 -3489 -507 -4907 l-77 -104
-131 130 c-226 222 -5420 5385 -6044 6007 -326 325 -593 594 -593 597 0 10
248 192 385 282 321 210 709 400 1070 524 382 131 813 215 1255 246 113 8 512
6 627 -3z m-857 -5030 c3234 -3214 3527 -3505 3528 -3512 3 -10 -239 -190
-368 -275 -1125 -741 -2488 -976 -3795 -653 -1170 289 -2190 1015 -2859 2035
-775 1180 -988 2635 -586 4007 155 532 445 1106 771 1528 l71 92 742 -739
c407 -406 1531 -1524 2496 -2483z"/>
</g>
</svg>
