<?xml version="1.0" encoding="iso-8859-1"?>
<!-- Generator: Adobe Illustrator 19.0.0, SVG Export Plug-In . SVG Version: 6.00 Build 0)  -->
<svg version="1.1" id="Capa_1" xmlns="http://www.w3.org/2000/svg" xmlns:xlink="http://www.w3.org/1999/xlink" x="0px" y="0px"
	 viewBox="0 0 445.794 445.794" style="fill: white; enable-background:new 0 0 445.794 445.794;" xml:space="preserve">
<g id="XMLID_35_">
	<path id="XMLID_351_" d="M444.677,209.51c-5.894-20.992-16.133-40.712-30.434-58.612c-13.665-17.104-30.692-32.106-50.608-44.592
		C344.006,94,322.057,84.451,298.398,77.922c-24.106-6.652-49.508-10.025-75.501-10.025c-26.946,0-53.232,3.715-78.13,11.042
		c-23.705,6.976-45.735,17.085-65.478,30.048C39.798,134.914,12.036,170.614,1.117,209.51c-2.538,9.04-0.697,18.747,4.975,26.23
		c5.671,7.483,14.519,11.879,23.909,11.879h65.035l-37.282,57.873c-2.601,4.037-3.983,8.737-3.983,13.539v33.866
		c0,13.807,11.193,25,25,25h288.255c13.807,0,25-11.193,25-25v-33.866c0-4.802-1.383-9.502-3.983-13.539l-37.282-57.873h65.035
		c9.39,0,18.237-4.396,23.909-11.879C445.373,228.257,447.215,218.55,444.677,209.51z M222.897,153.792
		c-99.5,0-120,29.547-120,29.547v34.28H30c17.737-63.182,93.307-119.722,192.897-119.722c95.102,0,173.408,50.3,192.896,119.722
		h-71.918v-34.28C343.875,183.339,322.397,153.792,222.897,153.792z M362.024,347.897h-88.158c14.774-13.698,24.03-33.264,24.03-55
		c0-41.421-33.578-75-75-75c-41.421,0-75,33.579-75,75c0,21.736,9.256,41.302,24.03,55H83.769v-27.395l85.599-132.876
		c13.656-2.249,31.186-3.834,53.529-3.834c22.229,0,39.772,1.571,53.514,3.812l85.614,132.898V347.897z M177.897,292.897
		c0-24.813,20.187-45,45-45s45,20.187,45,45c0,24.813-20.187,45-45,45S177.897,317.71,177.897,292.897z"/>
</g>
</svg>
